<?xml version="1.0" encoding="UTF-8"?>
<svg width="17px" height="14px" viewBox="0 0 17 14" version="1.1" xmlns="http://www.w3.org/2000/svg" xmlns:xlink="http://www.w3.org/1999/xlink">
    <!-- Generator: sketchtool 53.2 (72643) - https://sketchapp.com -->
    <title>E44A6FEC-0E3B-4915-B7AB-B65CBD877234</title>
    <desc>Created with sketchtool.</desc>
    <g id="Page-1" stroke="none" stroke-width="1" fill="none" fill-rule="evenodd">
        <g id="Desktop-HD" transform="translate(-150.000000, -3794.000000)" fill="#B89288" fill-rule="nonzero">
            <g id="Group-17" transform="translate(150.000000, 3055.000000)">
                <g id="Group-16" transform="translate(0.000000, 735.000000)">
                    <g id="round-email-24px-(4)" transform="translate(0.000000, 4.000000)">
                        <path d="M15.3,0 L1.7,0 C0.765,0 0.0085,0.765 0.0085,1.7 L0,11.9 C0,12.835 0.765,13.6 1.7,13.6 L15.3,13.6 C16.235,13.6 17,12.835 17,11.9 L17,1.7 C17,0.765 16.235,0 15.3,0 Z M14.96,3.6125 L8.9505,7.3695 C8.6785,7.5395 8.3215,7.5395 8.0495,7.3695 L2.04,3.6125 C1.8275,3.4765 1.7,3.247 1.7,3.0005 C1.7,2.431 2.3205,2.091 2.805,2.3885 L8.5,5.95 L14.195,2.3885 C14.6795,2.091 15.3,2.431 15.3,3.0005 C15.3,3.247 15.1725,3.4765 14.96,3.6125 Z" id="Shape"></path>
                    </g>
                </g>
            </g>
        </g>
    </g>
</svg>