<?xml version="1.0" encoding="UTF-8"?>
<svg width="31px" height="27px" viewBox="0 0 21 18" version="1.1" xmlns="http://www.w3.org/2000/svg" xmlns:xlink="http://www.w3.org/1999/xlink">
    <!-- Generator: sketchtool 53.2 (72643) - https://sketchapp.com -->
    <title>EC37D2B3-A964-41CD-8E61-56D50A7DF3FB</title>
    <desc>Created with sketchtool.</desc>
    <g id="Page-1" stroke="none" stroke-width="1" fill="none" fill-rule="evenodd">
        <g id="Desktop-HD" transform="translate(-154.000000, -22.000000)" fill="#B89288" fill-rule="nonzero">
            <g id="Group-9" transform="translate(-88.000000, -2.000000)">
                <g id="noun_spa_670644" transform="translate(242.000000, 24.000000)">
                    <path d="M10.2857143,3.85714286 C13.7142857,7.98748382 13.7142857,13.869659 10.2857143,18 C6.85714286,13.869659 6.85714286,7.98748382 10.2857143,3.85714286 Z M0,8.28875417 C0.530680729,2.55749664 4.81495686,1.24344979e-14 9.64285714,1.24344979e-14 C9.64285714,5.09958667 4.81495686,8.92042502 0,8.28875417 Z M20.5714286,8.28875417 C15.7564717,8.92042502 10.9285714,5.09958667 10.9285714,-6.21724894e-15 C15.7564717,-6.21724894e-15 20.0407478,2.55749664 20.5714286,8.28875417 Z" id="Shape" transform="translate(10.285714, 9.000000) scale(-1, 1) rotate(-180.000000) translate(-10.285714, -9.000000) "></path>
                </g>
            </g>
        </g>
    </g>
</svg>