<svg width="117" height="39" viewBox="0 0 117 39" fill="none" xmlns="http://www.w3.org/2000/svg">
<g clip-path="url(#clip0)">
<path d="M35.45 36.155C35.72 36.155 35.95 36.1233 36.14 36.06C36.3333 35.9967 36.49 35.91 36.61 35.8C36.7333 35.69 36.8233 35.56 36.88 35.41C36.9367 35.2567 36.965 35.09 36.965 34.91C36.965 34.5533 36.8417 34.2733 36.595 34.07C36.3483 33.8633 35.9667 33.76 35.45 33.76H33.95V36.155H35.45ZM33.95 30.655V33.005H35.175C35.6983 33.005 36.0867 32.9 36.34 32.69C36.5967 32.4767 36.725 32.19 36.725 31.83C36.725 31.42 36.6033 31.1217 36.36 30.935C36.1167 30.7483 35.7383 30.655 35.225 30.655H33.95ZM35.225 29.82C35.675 29.82 36.06 29.8633 36.38 29.95C36.7033 30.0367 36.9683 30.1617 37.175 30.325C37.3817 30.4883 37.5333 30.6867 37.63 30.92C37.73 31.15 37.78 31.4117 37.78 31.705C37.78 31.8783 37.7533 32.045 37.7 32.205C37.6467 32.365 37.565 32.515 37.455 32.655C37.345 32.7917 37.2067 32.915 37.04 33.025C36.8733 33.135 36.6767 33.2267 36.45 33.3C37.4933 33.5067 38.015 34.0517 38.015 34.935C38.015 35.2417 37.9583 35.5217 37.845 35.775C37.7317 36.025 37.5667 36.2417 37.35 36.425C37.1333 36.6083 36.8667 36.75 36.55 36.85C36.2333 36.95 35.8733 37 35.47 37H32.885V29.82H35.225ZM42.466 33.895C42.466 33.7017 42.4377 33.5233 42.381 33.36C42.3277 33.1967 42.2477 33.055 42.141 32.935C42.0343 32.815 41.9043 32.7217 41.751 32.655C41.5977 32.5883 41.421 32.555 41.221 32.555C40.811 32.555 40.4877 32.6733 40.251 32.91C40.0177 33.1467 39.8693 33.475 39.806 33.895H42.466ZM43.271 36.275C43.151 36.415 43.0127 36.5367 42.856 36.64C42.6993 36.74 42.5327 36.8217 42.356 36.885C42.1793 36.9483 41.996 36.995 41.806 37.025C41.6193 37.055 41.4343 37.07 41.251 37.07C40.901 37.07 40.576 37.0117 40.276 36.895C39.9793 36.775 39.721 36.6017 39.501 36.375C39.2843 36.145 39.1143 35.8617 38.991 35.525C38.871 35.185 38.811 34.795 38.811 34.355C38.811 34.0017 38.866 33.6733 38.976 33.37C39.086 33.0633 39.2427 32.7967 39.446 32.57C39.6527 32.3433 39.9043 32.165 40.201 32.035C40.4977 31.905 40.831 31.84 41.201 31.84C41.511 31.84 41.796 31.8917 42.056 31.995C42.3193 32.095 42.546 32.2417 42.736 32.435C42.926 32.6283 43.0743 32.8667 43.181 33.15C43.291 33.4333 43.346 33.7567 43.346 34.12C43.346 34.27 43.3293 34.3717 43.296 34.425C43.2627 34.475 43.201 34.5 43.111 34.5H39.781C39.791 34.8033 39.8343 35.0683 39.911 35.295C39.9877 35.5183 40.0927 35.705 40.226 35.855C40.3627 36.005 40.5243 36.1167 40.711 36.19C40.8977 36.2633 41.106 36.3 41.336 36.3C41.5527 36.3 41.7393 36.275 41.896 36.225C42.056 36.175 42.1927 36.1217 42.306 36.065C42.4227 36.005 42.5193 35.95 42.596 35.9C42.676 35.85 42.746 35.825 42.806 35.825C42.886 35.825 42.9477 35.855 42.991 35.915L43.271 36.275ZM48.619 31.92V37H48.034C47.9007 37 47.814 36.935 47.774 36.805L47.704 36.295C47.594 36.4117 47.479 36.5183 47.359 36.615C47.239 36.7117 47.1107 36.795 46.974 36.865C46.8373 36.9317 46.6923 36.9833 46.539 37.02C46.3857 37.06 46.2207 37.08 46.044 37.08C45.764 37.08 45.5173 37.0333 45.304 36.94C45.094 36.8467 44.9173 36.7167 44.774 36.55C44.6307 36.38 44.5223 36.1767 44.449 35.94C44.3757 35.7033 44.339 35.4417 44.339 35.155V31.92H45.319V35.155C45.319 35.5183 45.4023 35.8017 45.569 36.005C45.7357 36.205 45.9907 36.305 46.334 36.305C46.584 36.305 46.8173 36.2467 47.034 36.13C47.2507 36.01 47.454 35.8467 47.644 35.64V31.92H48.619ZM51.5699 37.08C51.1599 37.08 50.8433 36.965 50.6199 36.735C50.3999 36.505 50.2899 36.1767 50.2899 35.75V32.71H49.6999C49.6433 32.71 49.5949 32.6933 49.5549 32.66C49.5183 32.6233 49.4999 32.57 49.4999 32.5V32.105L50.3249 31.99L50.5449 30.475C50.5583 30.4183 50.5833 30.375 50.6199 30.345C50.6599 30.3117 50.7099 30.295 50.7699 30.295H51.2649V32H52.7049V32.71H51.2649V35.685C51.2649 35.885 51.3133 36.035 51.4099 36.135C51.5099 36.2317 51.6366 36.28 51.7899 36.28C51.8799 36.28 51.9566 36.2683 52.0199 36.245C52.0866 36.2217 52.1433 36.1967 52.1899 36.17C52.2366 36.14 52.2766 36.1133 52.3099 36.09C52.3433 36.0667 52.3733 36.055 52.3999 36.055C52.4333 36.055 52.4583 36.0633 52.4749 36.08C52.4949 36.0933 52.5149 36.1167 52.5349 36.15L52.8249 36.62C52.6649 36.7667 52.4749 36.88 52.2549 36.96C52.0349 37.04 51.8066 37.08 51.5699 37.08ZM58.043 31.92L55.223 38.475C55.193 38.5483 55.153 38.605 55.103 38.645C55.053 38.685 54.9796 38.705 54.883 38.705H54.158L55.088 36.68L53.003 31.92H53.853C53.9363 31.92 54.0013 31.94 54.048 31.98C54.0946 32.02 54.128 32.065 54.148 32.115L55.438 35.165C55.4646 35.2417 55.4896 35.32 55.513 35.4C55.5396 35.4767 55.5613 35.5533 55.578 35.63C55.6013 35.55 55.6263 35.4717 55.653 35.395C55.6796 35.315 55.708 35.2367 55.738 35.16L56.983 32.115C57.0063 32.0583 57.043 32.0117 57.093 31.975C57.143 31.9383 57.1996 31.92 57.263 31.92H58.043ZM63.8037 34.745C63.407 34.7583 63.0703 34.79 62.7937 34.84C62.517 34.8867 62.292 34.95 62.1187 35.03C61.9453 35.11 61.8203 35.205 61.7437 35.315C61.667 35.4217 61.6287 35.5417 61.6287 35.675C61.6287 35.8017 61.6487 35.9117 61.6887 36.005C61.732 36.095 61.7887 36.17 61.8587 36.23C61.932 36.2867 62.017 36.3283 62.1137 36.355C62.2103 36.3817 62.3153 36.395 62.4287 36.395C62.5787 36.395 62.7153 36.38 62.8387 36.35C62.9653 36.32 63.0837 36.2783 63.1937 36.225C63.3037 36.1683 63.4087 36.1 63.5087 36.02C63.6087 35.94 63.707 35.8483 63.8037 35.745V34.745ZM60.9437 32.63C61.227 32.36 61.5337 32.1583 61.8637 32.025C62.197 31.8917 62.562 31.825 62.9587 31.825C63.2487 31.825 63.5053 31.8733 63.7287 31.97C63.952 32.0633 64.1403 32.195 64.2937 32.365C64.447 32.535 64.562 32.7383 64.6387 32.975C64.7187 33.2117 64.7587 33.4733 64.7587 33.76V37H64.3237C64.227 37 64.1537 36.985 64.1037 36.955C64.0537 36.9217 64.0137 36.8617 63.9837 36.775L63.8787 36.33C63.7487 36.45 63.6203 36.5567 63.4937 36.65C63.367 36.74 63.2337 36.8183 63.0937 36.885C62.957 36.9483 62.8103 36.9967 62.6537 37.03C62.497 37.0633 62.3237 37.08 62.1337 37.08C61.9337 37.08 61.7453 37.0533 61.5687 37C61.3953 36.9433 61.2437 36.8583 61.1137 36.745C60.9837 36.6317 60.8803 36.49 60.8037 36.32C60.7303 36.15 60.6937 35.9517 60.6937 35.725C60.6937 35.525 60.747 35.3333 60.8537 35.15C60.9637 34.9633 61.1403 34.7967 61.3837 34.65C61.6303 34.5033 61.9503 34.3833 62.3437 34.29C62.7403 34.1967 63.227 34.1433 63.8037 34.13V33.76C63.8037 33.3767 63.722 33.09 63.5587 32.9C63.3953 32.71 63.1553 32.615 62.8387 32.615C62.6253 32.615 62.4453 32.6417 62.2987 32.695C62.1553 32.7483 62.0303 32.8083 61.9237 32.875C61.8203 32.9383 61.7287 32.9967 61.6487 33.05C61.572 33.1033 61.492 33.13 61.4087 33.13C61.342 33.13 61.2837 33.1117 61.2337 33.075C61.187 33.0383 61.1487 32.995 61.1187 32.945L60.9437 32.63ZM66.9789 32.625C67.0889 32.5083 67.2039 32.4017 67.3239 32.305C67.4439 32.2083 67.5706 32.1267 67.7039 32.06C67.8406 31.99 67.9856 31.9367 68.1389 31.9C68.2956 31.86 68.4622 31.84 68.6389 31.84C68.9189 31.84 69.1639 31.8867 69.3739 31.98C69.5872 32.0733 69.7656 32.205 69.9089 32.375C70.0522 32.5417 70.1606 32.7433 70.2339 32.98C70.3072 33.2167 70.3439 33.4783 70.3439 33.765V37H69.3639V33.765C69.3639 33.4017 69.2806 33.12 69.1139 32.92C68.9472 32.7167 68.6922 32.615 68.3489 32.615C68.0989 32.615 67.8639 32.675 67.6439 32.795C67.4272 32.9117 67.2256 33.0717 67.0389 33.275V37H66.0639V31.92H66.6489C66.7856 31.92 66.8706 31.985 66.9039 32.115L66.9789 32.625ZM74.9346 33.15C74.7746 32.94 74.6013 32.7933 74.4146 32.71C74.2313 32.6267 74.0246 32.585 73.7946 32.585C73.3479 32.585 73.0013 32.7467 72.7546 33.07C72.5113 33.39 72.3896 33.8583 72.3896 34.475C72.3896 34.7983 72.4163 35.075 72.4696 35.305C72.5263 35.5317 72.6063 35.7183 72.7096 35.865C72.8163 36.0083 72.9463 36.115 73.0996 36.185C73.2529 36.2517 73.4263 36.285 73.6196 36.285C73.9029 36.285 74.1479 36.2217 74.3546 36.095C74.5613 35.9683 74.7546 35.79 74.9346 35.56V33.15ZM75.9146 29.62V37H75.3246C75.1879 37 75.1029 36.935 75.0696 36.805L74.9846 36.22C74.7679 36.4767 74.5213 36.6833 74.2446 36.84C73.9713 36.9933 73.6546 37.07 73.2946 37.07C73.0046 37.07 72.7413 37.0133 72.5046 36.9C72.2713 36.7867 72.0713 36.6217 71.9046 36.405C71.7379 36.185 71.6096 35.9133 71.5196 35.59C71.4296 35.2667 71.3846 34.895 71.3846 34.475C71.3846 34.0983 71.4346 33.7483 71.5346 33.425C71.6346 33.1017 71.7796 32.8217 71.9696 32.585C72.1596 32.3483 72.3896 32.1633 72.6596 32.03C72.9296 31.8933 73.2346 31.825 73.5746 31.825C73.8813 31.825 74.1413 31.875 74.3546 31.975C74.5713 32.075 74.7646 32.2167 74.9346 32.4V29.62H75.9146ZM79.8041 37V31.92H80.3891C80.5258 31.92 80.6108 31.985 80.6441 32.115L80.7141 32.6C80.9008 32.3767 81.1075 32.195 81.3341 32.055C81.5641 31.9117 81.8325 31.84 82.1391 31.84C82.4758 31.84 82.7491 31.9333 82.9591 32.12C83.1691 32.3033 83.3225 32.5533 83.4191 32.87C83.4925 32.69 83.5875 32.535 83.7041 32.405C83.8208 32.275 83.9508 32.1683 84.0941 32.085C84.2375 32.0017 84.3891 31.94 84.5491 31.9C84.7125 31.86 84.8775 31.84 85.0441 31.84C85.3141 31.84 85.5541 31.8833 85.7641 31.97C85.9775 32.0533 86.1575 32.1767 86.3041 32.34C86.4508 32.5033 86.5625 32.705 86.6391 32.945C86.7158 33.185 86.7541 33.4583 86.7541 33.765V37H85.7741V33.765C85.7741 33.385 85.6908 33.0983 85.5241 32.905C85.3608 32.7117 85.1208 32.615 84.8041 32.615C84.6641 32.615 84.5308 32.64 84.4041 32.69C84.2775 32.7367 84.1658 32.8083 84.0691 32.905C83.9758 33.0017 83.9008 33.1217 83.8441 33.265C83.7908 33.4083 83.7641 33.575 83.7641 33.765V37H82.7841V33.765C82.7841 33.3717 82.7058 33.0817 82.5491 32.895C82.3925 32.7083 82.1625 32.615 81.8591 32.615C81.6491 32.615 81.4541 32.67 81.2741 32.78C81.0941 32.89 80.9291 33.04 80.7791 33.23V37H79.8041ZM90.7959 34.745C90.3992 34.7583 90.0625 34.79 89.7859 34.84C89.5092 34.8867 89.2842 34.95 89.1109 35.03C88.9375 35.11 88.8125 35.205 88.7359 35.315C88.6592 35.4217 88.6209 35.5417 88.6209 35.675C88.6209 35.8017 88.6409 35.9117 88.6809 36.005C88.7242 36.095 88.7809 36.17 88.8509 36.23C88.9242 36.2867 89.0092 36.3283 89.1059 36.355C89.2025 36.3817 89.3075 36.395 89.4209 36.395C89.5709 36.395 89.7075 36.38 89.8309 36.35C89.9575 36.32 90.0759 36.2783 90.1859 36.225C90.2959 36.1683 90.4009 36.1 90.5009 36.02C90.6009 35.94 90.6992 35.8483 90.7959 35.745V34.745ZM87.9359 32.63C88.2192 32.36 88.5259 32.1583 88.8559 32.025C89.1892 31.8917 89.5542 31.825 89.9509 31.825C90.2409 31.825 90.4975 31.8733 90.7209 31.97C90.9442 32.0633 91.1325 32.195 91.2859 32.365C91.4392 32.535 91.5542 32.7383 91.6309 32.975C91.7109 33.2117 91.7509 33.4733 91.7509 33.76V37H91.3159C91.2192 37 91.1459 36.985 91.0959 36.955C91.0459 36.9217 91.0059 36.8617 90.9759 36.775L90.8709 36.33C90.7409 36.45 90.6125 36.5567 90.4859 36.65C90.3592 36.74 90.2259 36.8183 90.0859 36.885C89.9492 36.9483 89.8025 36.9967 89.6459 37.03C89.4892 37.0633 89.3159 37.08 89.1259 37.08C88.9259 37.08 88.7375 37.0533 88.5609 37C88.3875 36.9433 88.2359 36.8583 88.1059 36.745C87.9759 36.6317 87.8725 36.49 87.7959 36.32C87.7225 36.15 87.6859 35.9517 87.6859 35.725C87.6859 35.525 87.7392 35.3333 87.8459 35.15C87.9559 34.9633 88.1325 34.7967 88.3759 34.65C88.6225 34.5033 88.9425 34.3833 89.3359 34.29C89.7325 34.1967 90.2192 34.1433 90.7959 34.13V33.76C90.7959 33.3767 90.7142 33.09 90.5509 32.9C90.3875 32.71 90.1475 32.615 89.8309 32.615C89.6175 32.615 89.4375 32.6417 89.2909 32.695C89.1475 32.7483 89.0225 32.8083 88.9159 32.875C88.8125 32.9383 88.7209 32.9967 88.6409 33.05C88.5642 33.1033 88.4842 33.13 88.4009 33.13C88.3342 33.13 88.2759 33.1117 88.2259 33.075C88.1792 33.0383 88.1409 32.995 88.1109 32.945L87.9359 32.63ZM96.0511 32.795C96.0244 32.8383 95.9961 32.87 95.9661 32.89C95.9361 32.9067 95.8978 32.915 95.8511 32.915C95.7978 32.915 95.7378 32.8967 95.6711 32.86C95.6078 32.8233 95.5294 32.7833 95.4361 32.74C95.3461 32.6967 95.2394 32.6567 95.1161 32.62C94.9928 32.5833 94.8461 32.565 94.6761 32.565C94.5361 32.565 94.4078 32.5833 94.2911 32.62C94.1778 32.6533 94.0811 32.7017 94.0011 32.765C93.9211 32.825 93.8594 32.8983 93.8161 32.985C93.7728 33.0683 93.7511 33.1583 93.7511 33.255C93.7511 33.3817 93.7878 33.4867 93.8611 33.57C93.9378 33.6533 94.0361 33.725 94.1561 33.785C94.2794 33.845 94.4178 33.9 94.5711 33.95C94.7278 33.9967 94.8861 34.0467 95.0461 34.1C95.2094 34.1533 95.3678 34.215 95.5211 34.285C95.6778 34.3517 95.8161 34.4367 95.9361 34.54C96.0594 34.64 96.1578 34.7617 96.2311 34.905C96.3078 35.0483 96.3461 35.2233 96.3461 35.43C96.3461 35.6667 96.3028 35.8867 96.2161 36.09C96.1328 36.29 96.0078 36.4633 95.8411 36.61C95.6778 36.7567 95.4744 36.8717 95.2311 36.955C94.9878 37.0383 94.7094 37.08 94.3961 37.08C94.0461 37.08 93.7228 37.0217 93.4261 36.905C93.1294 36.7883 92.8811 36.64 92.6811 36.46L92.9111 36.085C92.9378 36.0383 92.9711 36.0033 93.0111 35.98C93.0511 35.9533 93.1044 35.94 93.1711 35.94C93.2344 35.94 93.2994 35.9633 93.3661 36.01C93.4328 36.0567 93.5128 36.1083 93.6061 36.165C93.6994 36.2183 93.8128 36.2683 93.9461 36.315C94.0794 36.3583 94.2461 36.38 94.4461 36.38C94.6128 36.38 94.7578 36.36 94.8811 36.32C95.0044 36.2767 95.1061 36.22 95.1861 36.15C95.2694 36.0767 95.3311 35.9933 95.3711 35.9C95.4111 35.8067 95.4311 35.7083 95.4311 35.605C95.4311 35.4717 95.3928 35.3617 95.3161 35.275C95.2428 35.185 95.1444 35.1083 95.0211 35.045C94.9011 34.9817 94.7628 34.9267 94.6061 34.88C94.4494 34.8333 94.2894 34.7833 94.1261 34.73C93.9628 34.6767 93.8028 34.615 93.6461 34.545C93.4894 34.475 93.3494 34.3867 93.2261 34.28C93.1061 34.1733 93.0078 34.0433 92.9311 33.89C92.8578 33.7367 92.8211 33.55 92.8211 33.33C92.8211 33.1333 92.8611 32.945 92.9411 32.765C93.0244 32.585 93.1428 32.4267 93.2961 32.29C93.4528 32.1533 93.6444 32.045 93.8711 31.965C94.1011 31.8817 94.3628 31.84 94.6561 31.84C94.9928 31.84 95.2961 31.8933 95.5661 32C95.8394 32.1067 96.0728 32.2533 96.2661 32.44L96.0511 32.795ZM100.397 32.795C100.37 32.8383 100.342 32.87 100.312 32.89C100.282 32.9067 100.243 32.915 100.197 32.915C100.143 32.915 100.083 32.8967 100.017 32.86C99.9535 32.8233 99.8751 32.7833 99.7818 32.74C99.6918 32.6967 99.5851 32.6567 99.4618 32.62C99.3385 32.5833 99.1918 32.565 99.0218 32.565C98.8818 32.565 98.7535 32.5833 98.6368 32.62C98.5235 32.6533 98.4268 32.7017 98.3468 32.765C98.2668 32.825 98.2051 32.8983 98.1618 32.985C98.1185 33.0683 98.0968 33.1583 98.0968 33.255C98.0968 33.3817 98.1335 33.4867 98.2068 33.57C98.2835 33.6533 98.3818 33.725 98.5018 33.785C98.6251 33.845 98.7635 33.9 98.9168 33.95C99.0735 33.9967 99.2318 34.0467 99.3918 34.1C99.5551 34.1533 99.7135 34.215 99.8668 34.285C100.023 34.3517 100.162 34.4367 100.282 34.54C100.405 34.64 100.503 34.7617 100.577 34.905C100.653 35.0483 100.692 35.2233 100.692 35.43C100.692 35.6667 100.648 35.8867 100.562 36.09C100.478 36.29 100.353 36.4633 100.187 36.61C100.023 36.7567 99.8201 36.8717 99.5768 36.955C99.3335 37.0383 99.0551 37.08 98.7418 37.08C98.3918 37.08 98.0685 37.0217 97.7718 36.905C97.4751 36.7883 97.2268 36.64 97.0268 36.46L97.2568 36.085C97.2835 36.0383 97.3168 36.0033 97.3568 35.98C97.3968 35.9533 97.4501 35.94 97.5168 35.94C97.5801 35.94 97.6451 35.9633 97.7118 36.01C97.7785 36.0567 97.8585 36.1083 97.9518 36.165C98.0451 36.2183 98.1585 36.2683 98.2918 36.315C98.4251 36.3583 98.5918 36.38 98.7918 36.38C98.9585 36.38 99.1035 36.36 99.2268 36.32C99.3501 36.2767 99.4518 36.22 99.5318 36.15C99.6151 36.0767 99.6768 35.9933 99.7168 35.9C99.7568 35.8067 99.7768 35.7083 99.7768 35.605C99.7768 35.4717 99.7385 35.3617 99.6618 35.275C99.5885 35.185 99.4901 35.1083 99.3668 35.045C99.2468 34.9817 99.1085 34.9267 98.9518 34.88C98.7951 34.8333 98.6351 34.7833 98.4718 34.73C98.3085 34.6767 98.1485 34.615 97.9918 34.545C97.8351 34.475 97.6951 34.3867 97.5718 34.28C97.4518 34.1733 97.3535 34.0433 97.2768 33.89C97.2035 33.7367 97.1668 33.55 97.1668 33.33C97.1668 33.1333 97.2068 32.945 97.2868 32.765C97.3701 32.585 97.4885 32.4267 97.6418 32.29C97.7985 32.1533 97.9901 32.045 98.2168 31.965C98.4468 31.8817 98.7085 31.84 99.0018 31.84C99.3385 31.84 99.6418 31.8933 99.9118 32C100.185 32.1067 100.418 32.2533 100.612 32.44L100.397 32.795ZM104.478 34.745C104.081 34.7583 103.744 34.79 103.468 34.84C103.191 34.8867 102.966 34.95 102.793 35.03C102.619 35.11 102.494 35.205 102.418 35.315C102.341 35.4217 102.303 35.5417 102.303 35.675C102.303 35.8017 102.323 35.9117 102.363 36.005C102.406 36.095 102.463 36.17 102.532 36.23C102.606 36.2867 102.691 36.3283 102.788 36.355C102.884 36.3817 102.989 36.395 103.103 36.395C103.253 36.395 103.389 36.38 103.513 36.35C103.639 36.32 103.758 36.2783 103.868 36.225C103.978 36.1683 104.083 36.1 104.183 36.02C104.283 35.94 104.381 35.8483 104.478 35.745V34.745ZM101.618 32.63C101.901 32.36 102.208 32.1583 102.538 32.025C102.871 31.8917 103.236 31.825 103.632 31.825C103.923 31.825 104.179 31.8733 104.403 31.97C104.626 32.0633 104.814 32.195 104.968 32.365C105.121 32.535 105.236 32.7383 105.313 32.975C105.393 33.2117 105.433 33.4733 105.433 33.76V37H104.998C104.901 37 104.828 36.985 104.778 36.955C104.728 36.9217 104.688 36.8617 104.658 36.775L104.553 36.33C104.423 36.45 104.294 36.5567 104.168 36.65C104.041 36.74 103.908 36.8183 103.768 36.885C103.631 36.9483 103.484 36.9967 103.328 37.03C103.171 37.0633 102.998 37.08 102.808 37.08C102.608 37.08 102.419 37.0533 102.243 37C102.069 36.9433 101.918 36.8583 101.788 36.745C101.658 36.6317 101.554 36.49 101.478 36.32C101.404 36.15 101.368 35.9517 101.368 35.725C101.368 35.525 101.421 35.3333 101.528 35.15C101.638 34.9633 101.814 34.7967 102.058 34.65C102.304 34.5033 102.624 34.3833 103.018 34.29C103.414 34.1967 103.901 34.1433 104.478 34.13V33.76C104.478 33.3767 104.396 33.09 104.233 32.9C104.069 32.71 103.829 32.615 103.513 32.615C103.299 32.615 103.119 32.6417 102.973 32.695C102.829 32.7483 102.704 32.8083 102.598 32.875C102.494 32.9383 102.403 32.9967 102.323 33.05C102.246 33.1033 102.166 33.13 102.083 33.13C102.016 33.13 101.958 33.1117 101.908 33.075C101.861 33.0383 101.823 32.995 101.793 32.945L101.618 32.63ZM108.523 34.465C108.696 34.465 108.848 34.4417 108.978 34.395C109.111 34.3483 109.221 34.2833 109.308 34.2C109.398 34.1133 109.464 34.01 109.508 33.89C109.554 33.77 109.578 33.6383 109.578 33.495C109.578 33.2017 109.488 32.9683 109.308 32.795C109.131 32.6183 108.869 32.53 108.523 32.53C108.179 32.53 107.918 32.6183 107.738 32.795C107.561 32.9683 107.473 33.2017 107.473 33.495C107.473 33.6383 107.494 33.77 107.538 33.89C107.584 34.0067 107.651 34.1083 107.738 34.195C107.828 34.2783 107.938 34.345 108.068 34.395C108.201 34.4417 108.353 34.465 108.523 34.465ZM110.078 37.265C110.078 37.145 110.044 37.05 109.978 36.98C109.911 36.9067 109.819 36.85 109.703 36.81C109.589 36.7667 109.456 36.7367 109.303 36.72C109.149 36.7 108.988 36.685 108.818 36.675C108.651 36.665 108.479 36.6567 108.303 36.65C108.126 36.64 107.956 36.6233 107.793 36.6C107.619 36.6867 107.476 36.7917 107.363 36.915C107.253 37.0383 107.198 37.1833 107.198 37.35C107.198 37.4567 107.224 37.5567 107.278 37.65C107.334 37.7433 107.419 37.8233 107.533 37.89C107.649 37.96 107.794 38.0133 107.968 38.05C108.144 38.09 108.354 38.11 108.598 38.11C108.838 38.11 109.049 38.0883 109.233 38.045C109.416 38.005 109.569 37.9467 109.693 37.87C109.819 37.7967 109.914 37.7083 109.978 37.605C110.044 37.5017 110.078 37.3883 110.078 37.265ZM111.068 32.11V32.475C111.068 32.595 110.993 32.67 110.843 32.7L110.298 32.78C110.344 32.8833 110.381 32.9933 110.408 33.11C110.434 33.2233 110.448 33.3433 110.448 33.47C110.448 33.72 110.399 33.9467 110.303 34.15C110.206 34.35 110.073 34.5217 109.903 34.665C109.733 34.8083 109.529 34.9183 109.293 34.995C109.059 35.0717 108.803 35.11 108.523 35.11C108.293 35.11 108.078 35.085 107.878 35.035C107.778 35.095 107.701 35.1617 107.648 35.235C107.598 35.305 107.573 35.375 107.573 35.445C107.573 35.5617 107.621 35.6483 107.718 35.705C107.818 35.7617 107.946 35.8033 108.103 35.83C108.263 35.8533 108.444 35.8683 108.648 35.875C108.854 35.8817 109.063 35.8933 109.273 35.91C109.486 35.9233 109.694 35.95 109.898 35.99C110.104 36.0267 110.286 36.0883 110.443 36.175C110.603 36.2583 110.731 36.375 110.828 36.525C110.928 36.6717 110.978 36.8633 110.978 37.1C110.978 37.32 110.923 37.5333 110.813 37.74C110.706 37.9467 110.549 38.13 110.343 38.29C110.136 38.45 109.884 38.5783 109.588 38.675C109.291 38.7717 108.954 38.82 108.578 38.82C108.201 38.82 107.873 38.7833 107.593 38.71C107.316 38.6367 107.084 38.5383 106.898 38.415C106.714 38.2917 106.576 38.1483 106.483 37.985C106.393 37.8217 106.348 37.6517 106.348 37.475C106.348 37.2283 106.424 37.02 106.578 36.85C106.731 36.6767 106.943 36.5417 107.213 36.445C107.066 36.3783 106.949 36.2883 106.863 36.175C106.776 36.0583 106.733 35.905 106.733 35.715C106.733 35.6417 106.746 35.5667 106.773 35.49C106.799 35.41 106.839 35.3317 106.893 35.255C106.949 35.175 107.018 35.1 107.098 35.03C107.181 34.96 107.276 34.8967 107.383 34.84C107.133 34.7 106.936 34.515 106.793 34.285C106.649 34.0517 106.578 33.78 106.578 33.47C106.578 33.22 106.626 32.995 106.723 32.795C106.819 32.595 106.953 32.4233 107.123 32.28C107.296 32.1367 107.501 32.0267 107.738 31.95C107.978 31.8733 108.239 31.835 108.523 31.835C108.963 31.835 109.341 31.9267 109.658 32.11H111.068ZM115.249 33.895C115.249 33.7017 115.221 33.5233 115.164 33.36C115.111 33.1967 115.031 33.055 114.924 32.935C114.818 32.815 114.688 32.7217 114.534 32.655C114.381 32.5883 114.204 32.555 114.004 32.555C113.594 32.555 113.271 32.6733 113.034 32.91C112.801 33.1467 112.653 33.475 112.589 33.895H115.249ZM116.054 36.275C115.934 36.415 115.796 36.5367 115.639 36.64C115.483 36.74 115.316 36.8217 115.139 36.885C114.963 36.9483 114.779 36.995 114.589 37.025C114.403 37.055 114.218 37.07 114.034 37.07C113.684 37.07 113.359 37.0117 113.059 36.895C112.763 36.775 112.504 36.6017 112.284 36.375C112.068 36.145 111.898 35.8617 111.774 35.525C111.654 35.185 111.594 34.795 111.594 34.355C111.594 34.0017 111.649 33.6733 111.759 33.37C111.869 33.0633 112.026 32.7967 112.229 32.57C112.436 32.3433 112.688 32.165 112.984 32.035C113.281 31.905 113.614 31.84 113.984 31.84C114.294 31.84 114.579 31.8917 114.839 31.995C115.103 32.095 115.329 32.2417 115.519 32.435C115.709 32.6283 115.858 32.8667 115.964 33.15C116.074 33.4333 116.129 33.7567 116.129 34.12C116.129 34.27 116.113 34.3717 116.079 34.425C116.046 34.475 115.984 34.5 115.894 34.5H112.564C112.574 34.8033 112.618 35.0683 112.694 35.295C112.771 35.5183 112.876 35.705 113.009 35.855C113.146 36.005 113.308 36.1167 113.494 36.19C113.681 36.2633 113.889 36.3 114.119 36.3C114.336 36.3 114.523 36.275 114.679 36.225C114.839 36.175 114.976 36.1217 115.089 36.065C115.206 36.005 115.303 35.95 115.379 35.9C115.459 35.85 115.529 35.825 115.589 35.825C115.669 35.825 115.731 35.855 115.774 35.915L116.054 36.275Z" fill="#221E1F"/>
<path d="M45.04 20.38C45.24 20.6867 45.4467 20.9333 45.66 21.12C45.8733 21.3067 46.1467 21.4667 46.48 21.6V22C45.5467 21.96 44.5067 21.94 43.36 21.94C42.48 21.94 41.6333 21.96 40.82 22V21.6C41.1933 21.5733 41.46 21.5333 41.62 21.48C41.7933 21.4267 41.88 21.3333 41.88 21.2C41.88 21.0933 41.8067 20.9267 41.66 20.7L38.76 16C38.4933 15.5733 38.2667 15.2867 38.08 15.14C37.9067 14.9933 37.6667 14.9067 37.36 14.88V19.88C37.36 20.3867 37.3933 20.7533 37.46 20.98C37.54 21.2067 37.68 21.36 37.88 21.44C38.08 21.52 38.4067 21.5733 38.86 21.6V22C38.14 21.96 37.1333 21.94 35.84 21.94C34.4133 21.94 33.36 21.96 32.68 22V21.6C33.12 21.5733 33.44 21.52 33.64 21.44C33.8533 21.36 33.9933 21.2067 34.06 20.98C34.14 20.7533 34.18 20.3867 34.18 19.88V9.96C34.18 9.45333 34.14 9.08667 34.06 8.86C33.9933 8.63333 33.8533 8.48 33.64 8.4C33.44 8.32 33.12 8.26667 32.68 8.24V7.84C33.36 7.88 34.4133 7.9 35.84 7.9C37.1333 7.9 38.14 7.88 38.86 7.84V8.24C38.4067 8.26667 38.08 8.32 37.88 8.4C37.68 8.48 37.54 8.63333 37.46 8.86C37.3933 9.08667 37.36 9.45333 37.36 9.96V14.46C37.8933 14.4333 38.38 14.2733 38.82 13.98C39.26 13.6867 39.76 13.22 40.32 12.58L41.5 11.16C42.1133 10.4533 42.42 9.83333 42.42 9.3C42.42 8.98 42.2867 8.72667 42.02 8.54C41.7667 8.35333 41.4067 8.24667 40.94 8.22V7.84C41.9133 7.88 42.9 7.9 43.9 7.9C44.6733 7.9 45.3 7.88 45.78 7.84V8.22C44.7133 8.47333 43.7467 9.11333 42.88 10.14L40.38 13.12L45.04 20.38ZM53.7773 22.14C52.924 22.14 52.284 21.92 51.8573 21.48C51.444 21.04 51.2373 20.46 51.2373 19.74C51.2373 19.14 51.3907 18.6467 51.6973 18.26C52.0173 17.86 52.3973 17.5533 52.8373 17.34C53.2907 17.1267 53.864 16.9 54.5573 16.66C55.2907 16.4067 55.824 16.18 56.1573 15.98C56.504 15.7667 56.6773 15.48 56.6773 15.12V13.56C56.6773 13 56.544 12.5667 56.2773 12.26C56.024 11.94 55.624 11.78 55.0773 11.78C54.4373 11.78 53.9507 11.94 53.6173 12.26C53.9907 12.3933 54.2773 12.5933 54.4773 12.86C54.6907 13.1267 54.7973 13.44 54.7973 13.8C54.7973 14.2533 54.644 14.6133 54.3373 14.88C54.0307 15.1467 53.6573 15.28 53.2173 15.28C52.7507 15.28 52.3907 15.1333 52.1373 14.84C51.884 14.5467 51.7573 14.18 51.7573 13.74C51.7573 13.3667 51.844 13.0533 52.0173 12.8C52.204 12.5333 52.484 12.2867 52.8573 12.06C53.2173 11.8467 53.6573 11.68 54.1773 11.56C54.7107 11.44 55.2907 11.38 55.9173 11.38C56.5707 11.38 57.1373 11.4467 57.6173 11.58C58.0973 11.7133 58.4973 11.94 58.8173 12.26C59.1107 12.5533 59.304 12.9133 59.3973 13.34C59.504 13.7667 59.5573 14.3467 59.5573 15.08V20.52C59.5573 20.84 59.584 21.0667 59.6373 21.2C59.704 21.3333 59.824 21.4 59.9973 21.4C60.1973 21.4 60.4373 21.2867 60.7173 21.06L60.9173 21.4C60.3173 21.8933 59.584 22.14 58.7173 22.14C57.984 22.14 57.4707 21.9933 57.1773 21.7C56.884 21.4067 56.7307 21.0133 56.7173 20.52C56.0507 21.6 55.0707 22.14 53.7773 22.14ZM55.3173 20.86C55.8373 20.86 56.2907 20.5867 56.6773 20.04V15.94C56.5173 16.2067 56.1773 16.5 55.6573 16.82C55.1373 17.1533 54.744 17.4867 54.4773 17.82C54.2107 18.1533 54.0773 18.6333 54.0773 19.26C54.0773 19.8067 54.1907 20.2133 54.4173 20.48C54.644 20.7333 54.944 20.86 55.3173 20.86ZM72.7489 11.38C73.3489 11.38 73.8022 11.56 74.1089 11.92C74.4156 12.28 74.5689 12.7133 74.5689 13.22C74.5689 13.7133 74.4222 14.12 74.1289 14.44C73.8489 14.7467 73.4756 14.9 73.0089 14.9C72.5556 14.9 72.1956 14.7867 71.9289 14.56C71.6622 14.32 71.5289 14.0067 71.5289 13.62C71.5289 12.98 71.8222 12.46 72.4089 12.06C72.3556 12.0467 72.2756 12.04 72.1689 12.04C72.0356 12.04 71.9289 12.0533 71.8489 12.08C71.3422 12.16 70.9089 12.4667 70.5489 13C70.2022 13.5333 70.0289 14.08 70.0289 14.64V19.94C70.0289 20.5533 70.1756 20.98 70.4689 21.22C70.7756 21.46 71.2556 21.58 71.9089 21.58V22C71.7222 22 71.5689 21.9933 71.4489 21.98C70.0889 21.94 69.1822 21.92 68.7289 21.92C68.3689 21.92 67.5489 21.94 66.2689 21.98C66.1622 21.9933 66.0289 22 65.8689 22V21.58C66.3489 21.58 66.6822 21.48 66.8689 21.28C67.0556 21.0667 67.1489 20.6867 67.1489 20.14V13.84C67.1489 13.2267 67.0556 12.78 66.8689 12.5C66.6822 12.22 66.3489 12.08 65.8689 12.08V11.66C66.2956 11.7 66.7089 11.72 67.1089 11.72C68.2956 11.72 69.2689 11.6267 70.0289 11.44V13.3C70.2822 12.7267 70.6489 12.2667 71.1289 11.92C71.6089 11.56 72.1489 11.38 72.7489 11.38ZM82.1848 6.5C82.7448 6.5 83.1848 6.64 83.5048 6.92C83.8382 7.18667 84.0048 7.56 84.0048 8.04C84.0048 8.52 83.8382 8.9 83.5048 9.18C83.1848 9.44667 82.7448 9.58 82.1848 9.58C81.6248 9.58 81.1782 9.44667 80.8448 9.18C80.5248 8.9 80.3648 8.52 80.3648 8.04C80.3648 7.56 80.5248 7.18667 80.8448 6.92C81.1782 6.64 81.6248 6.5 82.1848 6.5ZM83.7448 20.14C83.7448 20.6867 83.8382 21.0667 84.0248 21.28C84.2248 21.48 84.5582 21.58 85.0248 21.58V22C83.6915 21.9467 82.8048 21.92 82.3648 21.92C81.9515 21.92 81.0248 21.9467 79.5848 22V21.58C80.0648 21.58 80.3982 21.48 80.5848 21.28C80.7715 21.0667 80.8648 20.6867 80.8648 20.14V13.84C80.8648 13.2267 80.7715 12.78 80.5848 12.5C80.3982 12.22 80.0648 12.08 79.5848 12.08V11.66C80.0115 11.7 80.4248 11.72 80.8248 11.72C82.0115 11.72 82.9848 11.6267 83.7448 11.44V20.14ZM97.7134 11.38C98.7268 11.38 99.4601 11.64 99.9134 12.16C100.14 12.4133 100.3 12.74 100.393 13.14C100.487 13.54 100.533 14.08 100.533 14.76V20.14C100.533 20.6867 100.627 21.0667 100.813 21.28C101.013 21.48 101.347 21.58 101.813 21.58V22C100.48 21.9467 99.6001 21.92 99.1734 21.92C98.7734 21.92 97.9068 21.9467 96.5734 22V21.58C96.9734 21.58 97.2534 21.48 97.4134 21.28C97.5734 21.0667 97.6534 20.6867 97.6534 20.14V13.92C97.6534 13.3733 97.5601 12.96 97.3734 12.68C97.2001 12.4 96.8801 12.26 96.4134 12.26C95.8668 12.26 95.4001 12.4867 95.0134 12.94C94.6268 13.38 94.4334 13.9267 94.4334 14.58V20.14C94.4334 20.6867 94.5134 21.0667 94.6734 21.28C94.8334 21.48 95.1134 21.58 95.5134 21.58V22C94.2868 21.9467 93.4601 21.92 93.0334 21.92C92.6334 21.92 91.7134 21.9467 90.2734 22V21.58C90.7534 21.58 91.0868 21.48 91.2734 21.28C91.4601 21.0667 91.5534 20.6867 91.5534 20.14V13.84C91.5534 13.2267 91.4601 12.78 91.2734 12.5C91.0868 12.22 90.7534 12.08 90.2734 12.08V11.66C90.7001 11.7 91.1134 11.72 91.5134 11.72C92.7001 11.72 93.6734 11.6267 94.4334 11.44V13.24C95.0334 12 96.1268 11.38 97.7134 11.38ZM109.579 22.14C108.725 22.14 108.085 21.92 107.659 21.48C107.245 21.04 107.039 20.46 107.039 19.74C107.039 19.14 107.192 18.6467 107.499 18.26C107.819 17.86 108.199 17.5533 108.639 17.34C109.092 17.1267 109.665 16.9 110.359 16.66C111.092 16.4067 111.625 16.18 111.959 15.98C112.305 15.7667 112.479 15.48 112.479 15.12V13.56C112.479 13 112.345 12.5667 112.079 12.26C111.825 11.94 111.425 11.78 110.879 11.78C110.239 11.78 109.752 11.94 109.419 12.26C109.792 12.3933 110.079 12.5933 110.279 12.86C110.492 13.1267 110.599 13.44 110.599 13.8C110.599 14.2533 110.445 14.6133 110.139 14.88C109.832 15.1467 109.459 15.28 109.019 15.28C108.552 15.28 108.192 15.1333 107.939 14.84C107.685 14.5467 107.559 14.18 107.559 13.74C107.559 13.3667 107.645 13.0533 107.819 12.8C108.005 12.5333 108.285 12.2867 108.659 12.06C109.019 11.8467 109.459 11.68 109.979 11.56C110.512 11.44 111.092 11.38 111.719 11.38C112.372 11.38 112.939 11.4467 113.419 11.58C113.899 11.7133 114.299 11.94 114.619 12.26C114.912 12.5533 115.105 12.9133 115.199 13.34C115.305 13.7667 115.359 14.3467 115.359 15.08V20.52C115.359 20.84 115.385 21.0667 115.439 21.2C115.505 21.3333 115.625 21.4 115.799 21.4C115.999 21.4 116.239 21.2867 116.519 21.06L116.719 21.4C116.119 21.8933 115.385 22.14 114.519 22.14C113.785 22.14 113.272 21.9933 112.979 21.7C112.685 21.4067 112.532 21.0133 112.519 20.52C111.852 21.6 110.872 22.14 109.579 22.14ZM111.119 20.86C111.639 20.86 112.092 20.5867 112.479 20.04V15.94C112.319 16.2067 111.979 16.5 111.459 16.82C110.939 17.1533 110.545 17.4867 110.279 17.82C110.012 18.1533 109.879 18.6333 109.879 19.26C109.879 19.8067 109.992 20.2133 110.219 20.48C110.445 20.7333 110.745 20.86 111.119 20.86Z" fill="#221E1F"/>
<path fill-rule="evenodd" clip-rule="evenodd" d="M0 14.7112C0.530681 20.4425 4.81496 23 9.64286 23C9.64286 17.9004 4.81496 14.0796 0 14.7112ZM10.2857 19.1429C13.7143 15.0125 13.7143 9.13034 10.2857 5C6.85714 9.13034 6.85714 15.0125 10.2857 19.1429ZM20.5714 14.7112C15.7565 14.0796 10.9286 17.9004 10.9286 23C15.7565 23 20.0407 20.4425 20.5714 14.7112Z" fill="#B89288"/>
</g>
<defs>
<clipPath id="clip0">
<rect width="117" height="39" fill="white"/>
</clipPath>
</defs>
</svg>
